<mxfile host="65bd71144e">
    <diagram id="vmNf81btBQJz3rksyaQJ" name="Page-1">
        <mxGraphModel dx="1127" dy="898" grid="1" gridSize="10" guides="1" tooltips="1" connect="1" arrows="1" fold="1" page="1" pageScale="1" pageWidth="827" pageHeight="1169" math="0" shadow="0">
            <root>
                <mxCell id="0"/>
                <mxCell id="1" parent="0"/>
                <mxCell id="2" value="&lt;font color=&quot;#000000&quot; style=&quot;font-size: 14px&quot;&gt;Main VPC&lt;/font&gt;" style="points=[[0,0],[0.25,0],[0.5,0],[0.75,0],[1,0],[1,0.25],[1,0.5],[1,0.75],[1,1],[0.75,1],[0.5,1],[0.25,1],[0,1],[0,0.75],[0,0.5],[0,0.25]];outlineConnect=0;gradientColor=none;html=1;whiteSpace=wrap;fontSize=12;fontStyle=0;container=1;pointerEvents=0;collapsible=0;recursiveResize=0;shape=mxgraph.aws4.group;grIcon=mxgraph.aws4.group_vpc;strokeColor=#248814;fillColor=none;verticalAlign=top;align=left;spacingLeft=30;fontColor=#AAB7B8;dashed=0;strokeWidth=2;" parent="1" vertex="1">
                    <mxGeometry x="20" y="40" width="680" height="760" as="geometry"/>
                </mxCell>
                <mxCell id="69" value="Public&lt;br&gt;Environment" style="rounded=0;whiteSpace=wrap;html=1;fontSize=14;fontColor=#000000;strokeColor=#35404F;strokeWidth=2;fillColor=none;labelPosition=center;verticalLabelPosition=top;align=center;verticalAlign=bottom;spacing=8;" parent="2" vertex="1">
                    <mxGeometry x="10" y="530" width="660" height="220" as="geometry"/>
                </mxCell>
                <mxCell id="68" value="Private&lt;br&gt;Environment" style="rounded=0;whiteSpace=wrap;html=1;fontSize=14;fontColor=#000000;strokeColor=#35404F;strokeWidth=2;fillColor=none;labelPosition=center;verticalLabelPosition=bottom;align=center;verticalAlign=top;spacing=8;" parent="2" vertex="1">
                    <mxGeometry x="10" y="70" width="660" height="360" as="geometry"/>
                </mxCell>
                <mxCell id="8" value="Internal Environment" style="fillColor=none;strokeColor=#35404F;dashed=1;verticalAlign=top;fontStyle=0;fontColor=#5A6C86;fontSize=14;strokeWidth=2;" parent="2" vertex="1">
                    <mxGeometry x="28" y="40" width="200" height="700" as="geometry"/>
                </mxCell>
                <mxCell id="22" value="ECS&lt;br&gt;Cluster" style="points=[[0,0],[0.25,0],[0.5,0],[0.75,0],[1,0],[1,0.25],[1,0.5],[1,0.75],[1,1],[0.75,1],[0.5,1],[0.25,1],[0,1],[0,0.75],[0,0.5],[0,0.25]];outlineConnect=0;gradientColor=none;html=1;whiteSpace=wrap;fontSize=12;fontStyle=0;container=1;pointerEvents=0;collapsible=0;recursiveResize=0;shape=mxgraph.aws4.group;grIcon=mxgraph.aws4.group_ec2_instance_contents;strokeColor=#D86613;fillColor=none;verticalAlign=top;align=left;spacingLeft=30;fontColor=#D86613;dashed=0;strokeWidth=2;" parent="2" vertex="1">
                    <mxGeometry x="40" y="80" width="180" height="340" as="geometry"/>
                </mxCell>
                <mxCell id="7" value="Private subnet" style="points=[[0,0],[0.25,0],[0.5,0],[0.75,0],[1,0],[1,0.25],[1,0.5],[1,0.75],[1,1],[0.75,1],[0.5,1],[0.25,1],[0,1],[0,0.75],[0,0.5],[0,0.25]];outlineConnect=0;gradientColor=none;html=1;whiteSpace=wrap;fontSize=12;fontStyle=0;container=1;pointerEvents=0;collapsible=0;recursiveResize=0;shape=mxgraph.aws4.group;grIcon=mxgraph.aws4.group_security_group;grStroke=0;strokeColor=#147EBA;fillColor=#E6F2F8;verticalAlign=top;align=left;spacingLeft=30;fontColor=#147EBA;dashed=0;" parent="2" vertex="1">
                    <mxGeometry x="45" y="120" width="170" height="290" as="geometry"/>
                </mxCell>
                <mxCell id="16" value="Redis" style="rounded=1;whiteSpace=wrap;html=1;fontSize=14;fontColor=#000000;" parent="7" vertex="1">
                    <mxGeometry x="15" y="130" width="140" height="30" as="geometry"/>
                </mxCell>
                <mxCell id="14" value="InfluxDB" style="rounded=1;whiteSpace=wrap;html=1;fontSize=14;fontColor=#000000;" parent="7" vertex="1">
                    <mxGeometry x="15" y="50" width="140" height="30" as="geometry"/>
                </mxCell>
                <mxCell id="23" value="ECS&lt;br&gt;Cluster" style="points=[[0,0],[0.25,0],[0.5,0],[0.75,0],[1,0],[1,0.25],[1,0.5],[1,0.75],[1,1],[0.75,1],[0.5,1],[0.25,1],[0,1],[0,0.75],[0,0.5],[0,0.25]];outlineConnect=0;gradientColor=none;html=1;whiteSpace=wrap;fontSize=12;fontStyle=0;container=1;pointerEvents=0;collapsible=0;recursiveResize=0;shape=mxgraph.aws4.group;grIcon=mxgraph.aws4.group_ec2_instance_contents;strokeColor=#D86613;fillColor=none;verticalAlign=top;align=left;spacingLeft=30;fontColor=#D86613;dashed=0;strokeWidth=2;" parent="2" vertex="1">
                    <mxGeometry x="35" y="540" width="180" height="190" as="geometry"/>
                </mxCell>
                <mxCell id="31" value="Public subnet" style="points=[[0,0],[0.25,0],[0.5,0],[0.75,0],[1,0],[1,0.25],[1,0.5],[1,0.75],[1,1],[0.75,1],[0.5,1],[0.25,1],[0,1],[0,0.75],[0,0.5],[0,0.25]];outlineConnect=0;gradientColor=none;html=1;whiteSpace=wrap;fontSize=12;fontStyle=0;container=1;pointerEvents=0;collapsible=0;recursiveResize=0;shape=mxgraph.aws4.group;grIcon=mxgraph.aws4.group_security_group;grStroke=0;strokeColor=#248814;fillColor=#E9F3E6;verticalAlign=top;align=left;spacingLeft=30;fontColor=#248814;dashed=0;" parent="2" vertex="1">
                    <mxGeometry x="40" y="580" width="170" height="140" as="geometry"/>
                </mxCell>
                <mxCell id="33" value="Backend API" style="rounded=1;whiteSpace=wrap;html=1;fontSize=14;fontColor=#000000;" parent="31" vertex="1">
                    <mxGeometry x="15" y="100" width="140" height="30" as="geometry"/>
                </mxCell>
                <mxCell id="32" value="Grafana" style="rounded=1;whiteSpace=wrap;html=1;fontSize=14;fontColor=#000000;" parent="2" vertex="1">
                    <mxGeometry x="55" y="630" width="140" height="30" as="geometry"/>
                </mxCell>
                <mxCell id="18" value="Simulation Worker" style="rounded=1;whiteSpace=wrap;html=1;fontSize=14;fontColor=#000000;" parent="2" vertex="1">
                    <mxGeometry x="60" y="330" width="140" height="30" as="geometry"/>
                </mxCell>
                <mxCell id="53" value="Forecast Worker" style="rounded=1;whiteSpace=wrap;html=1;fontSize=14;fontColor=#000000;" parent="2" vertex="1">
                    <mxGeometry x="60" y="290" width="140" height="30" as="geometry"/>
                </mxCell>
                <mxCell id="15" value="PostgreSQL" style="rounded=1;whiteSpace=wrap;html=1;fontSize=14;fontColor=#000000;" parent="2" vertex="1">
                    <mxGeometry x="60" y="210" width="140" height="30" as="geometry"/>
                </mxCell>
                <mxCell id="19" value="Optimization Worker" style="rounded=1;whiteSpace=wrap;html=1;fontSize=14;fontColor=#000000;" parent="2" vertex="1">
                    <mxGeometry x="60" y="370" width="140" height="30" as="geometry"/>
                </mxCell>
                <mxCell id="71" value="Staging Environment" style="fillColor=none;strokeColor=#35404F;dashed=1;verticalAlign=top;fontStyle=0;fontColor=#5A6C86;fontSize=14;strokeWidth=2;" parent="2" vertex="1">
                    <mxGeometry x="240" y="40" width="200" height="700" as="geometry"/>
                </mxCell>
                <mxCell id="72" value="ECS&lt;br&gt;Cluster" style="points=[[0,0],[0.25,0],[0.5,0],[0.75,0],[1,0],[1,0.25],[1,0.5],[1,0.75],[1,1],[0.75,1],[0.5,1],[0.25,1],[0,1],[0,0.75],[0,0.5],[0,0.25]];outlineConnect=0;gradientColor=none;html=1;whiteSpace=wrap;fontSize=12;fontStyle=0;container=1;pointerEvents=0;collapsible=0;recursiveResize=0;shape=mxgraph.aws4.group;grIcon=mxgraph.aws4.group_ec2_instance_contents;strokeColor=#D86613;fillColor=none;verticalAlign=top;align=left;spacingLeft=30;fontColor=#D86613;dashed=0;strokeWidth=2;" parent="2" vertex="1">
                    <mxGeometry x="252" y="80" width="180" height="340" as="geometry"/>
                </mxCell>
                <mxCell id="73" value="Private subnet" style="points=[[0,0],[0.25,0],[0.5,0],[0.75,0],[1,0],[1,0.25],[1,0.5],[1,0.75],[1,1],[0.75,1],[0.5,1],[0.25,1],[0,1],[0,0.75],[0,0.5],[0,0.25]];outlineConnect=0;gradientColor=none;html=1;whiteSpace=wrap;fontSize=12;fontStyle=0;container=1;pointerEvents=0;collapsible=0;recursiveResize=0;shape=mxgraph.aws4.group;grIcon=mxgraph.aws4.group_security_group;grStroke=0;strokeColor=#147EBA;fillColor=#E6F2F8;verticalAlign=top;align=left;spacingLeft=30;fontColor=#147EBA;dashed=0;" parent="2" vertex="1">
                    <mxGeometry x="257" y="120" width="170" height="290" as="geometry"/>
                </mxCell>
                <mxCell id="74" value="Redis" style="rounded=1;whiteSpace=wrap;html=1;fontSize=14;fontColor=#000000;" parent="73" vertex="1">
                    <mxGeometry x="15" y="130" width="140" height="30" as="geometry"/>
                </mxCell>
                <mxCell id="75" value="InfluxDB" style="rounded=1;whiteSpace=wrap;html=1;fontSize=14;fontColor=#000000;" parent="73" vertex="1">
                    <mxGeometry x="15" y="50" width="140" height="30" as="geometry"/>
                </mxCell>
                <mxCell id="76" value="ECS&lt;br&gt;Cluster" style="points=[[0,0],[0.25,0],[0.5,0],[0.75,0],[1,0],[1,0.25],[1,0.5],[1,0.75],[1,1],[0.75,1],[0.5,1],[0.25,1],[0,1],[0,0.75],[0,0.5],[0,0.25]];outlineConnect=0;gradientColor=none;html=1;whiteSpace=wrap;fontSize=12;fontStyle=0;container=1;pointerEvents=0;collapsible=0;recursiveResize=0;shape=mxgraph.aws4.group;grIcon=mxgraph.aws4.group_ec2_instance_contents;strokeColor=#D86613;fillColor=none;verticalAlign=top;align=left;spacingLeft=30;fontColor=#D86613;dashed=0;strokeWidth=2;" parent="2" vertex="1">
                    <mxGeometry x="247" y="540" width="180" height="190" as="geometry"/>
                </mxCell>
                <mxCell id="77" value="Public subnet" style="points=[[0,0],[0.25,0],[0.5,0],[0.75,0],[1,0],[1,0.25],[1,0.5],[1,0.75],[1,1],[0.75,1],[0.5,1],[0.25,1],[0,1],[0,0.75],[0,0.5],[0,0.25]];outlineConnect=0;gradientColor=none;html=1;whiteSpace=wrap;fontSize=12;fontStyle=0;container=1;pointerEvents=0;collapsible=0;recursiveResize=0;shape=mxgraph.aws4.group;grIcon=mxgraph.aws4.group_security_group;grStroke=0;strokeColor=#248814;fillColor=#E9F3E6;verticalAlign=top;align=left;spacingLeft=30;fontColor=#248814;dashed=0;" parent="2" vertex="1">
                    <mxGeometry x="252" y="580" width="170" height="140" as="geometry"/>
                </mxCell>
                <mxCell id="78" value="Backend API" style="rounded=1;whiteSpace=wrap;html=1;fontSize=14;fontColor=#000000;" parent="77" vertex="1">
                    <mxGeometry x="15" y="100" width="140" height="30" as="geometry"/>
                </mxCell>
                <mxCell id="79" value="Grafana" style="rounded=1;whiteSpace=wrap;html=1;fontSize=14;fontColor=#000000;" parent="2" vertex="1">
                    <mxGeometry x="267" y="630" width="140" height="30" as="geometry"/>
                </mxCell>
                <mxCell id="80" value="Simulation Worker" style="rounded=1;whiteSpace=wrap;html=1;fontSize=14;fontColor=#000000;" parent="2" vertex="1">
                    <mxGeometry x="272" y="330" width="140" height="30" as="geometry"/>
                </mxCell>
                <mxCell id="81" value="Forecast Worker" style="rounded=1;whiteSpace=wrap;html=1;fontSize=14;fontColor=#000000;" parent="2" vertex="1">
                    <mxGeometry x="272" y="290" width="140" height="30" as="geometry"/>
                </mxCell>
                <mxCell id="82" value="PostgreSQL" style="rounded=1;whiteSpace=wrap;html=1;fontSize=14;fontColor=#000000;" parent="2" vertex="1">
                    <mxGeometry x="272" y="210" width="140" height="30" as="geometry"/>
                </mxCell>
                <mxCell id="84" value="Optimization Worker" style="rounded=1;whiteSpace=wrap;html=1;fontSize=14;fontColor=#000000;" parent="2" vertex="1">
                    <mxGeometry x="272" y="370" width="140" height="30" as="geometry"/>
                </mxCell>
                <mxCell id="85" value="Production Environment" style="fillColor=none;strokeColor=#35404F;dashed=1;verticalAlign=top;fontStyle=0;fontColor=#5A6C86;fontSize=14;strokeWidth=2;" parent="2" vertex="1">
                    <mxGeometry x="450" y="40" width="200" height="700" as="geometry"/>
                </mxCell>
                <mxCell id="86" value="ECS&lt;br&gt;Cluster" style="points=[[0,0],[0.25,0],[0.5,0],[0.75,0],[1,0],[1,0.25],[1,0.5],[1,0.75],[1,1],[0.75,1],[0.5,1],[0.25,1],[0,1],[0,0.75],[0,0.5],[0,0.25]];outlineConnect=0;gradientColor=none;html=1;whiteSpace=wrap;fontSize=12;fontStyle=0;container=1;pointerEvents=0;collapsible=0;recursiveResize=0;shape=mxgraph.aws4.group;grIcon=mxgraph.aws4.group_ec2_instance_contents;strokeColor=#D86613;fillColor=none;verticalAlign=top;align=left;spacingLeft=30;fontColor=#D86613;dashed=0;strokeWidth=2;" parent="2" vertex="1">
                    <mxGeometry x="462" y="80" width="180" height="340" as="geometry"/>
                </mxCell>
                <mxCell id="87" value="Private subnet" style="points=[[0,0],[0.25,0],[0.5,0],[0.75,0],[1,0],[1,0.25],[1,0.5],[1,0.75],[1,1],[0.75,1],[0.5,1],[0.25,1],[0,1],[0,0.75],[0,0.5],[0,0.25]];outlineConnect=0;gradientColor=none;html=1;whiteSpace=wrap;fontSize=12;fontStyle=0;container=1;pointerEvents=0;collapsible=0;recursiveResize=0;shape=mxgraph.aws4.group;grIcon=mxgraph.aws4.group_security_group;grStroke=0;strokeColor=#147EBA;fillColor=#E6F2F8;verticalAlign=top;align=left;spacingLeft=30;fontColor=#147EBA;dashed=0;" parent="2" vertex="1">
                    <mxGeometry x="467" y="120" width="170" height="290" as="geometry"/>
                </mxCell>
                <mxCell id="88" value="Redis" style="rounded=1;whiteSpace=wrap;html=1;fontSize=14;fontColor=#000000;" parent="87" vertex="1">
                    <mxGeometry x="15" y="130" width="140" height="30" as="geometry"/>
                </mxCell>
                <mxCell id="89" value="InfluxDB" style="rounded=1;whiteSpace=wrap;html=1;fontSize=14;fontColor=#000000;" parent="87" vertex="1">
                    <mxGeometry x="15" y="50" width="140" height="30" as="geometry"/>
                </mxCell>
                <mxCell id="90" value="ECS&lt;br&gt;Cluster" style="points=[[0,0],[0.25,0],[0.5,0],[0.75,0],[1,0],[1,0.25],[1,0.5],[1,0.75],[1,1],[0.75,1],[0.5,1],[0.25,1],[0,1],[0,0.75],[0,0.5],[0,0.25]];outlineConnect=0;gradientColor=none;html=1;whiteSpace=wrap;fontSize=12;fontStyle=0;container=1;pointerEvents=0;collapsible=0;recursiveResize=0;shape=mxgraph.aws4.group;grIcon=mxgraph.aws4.group_ec2_instance_contents;strokeColor=#D86613;fillColor=none;verticalAlign=top;align=left;spacingLeft=30;fontColor=#D86613;dashed=0;strokeWidth=2;" parent="2" vertex="1">
                    <mxGeometry x="457" y="540" width="180" height="190" as="geometry"/>
                </mxCell>
                <mxCell id="91" value="Public subnet" style="points=[[0,0],[0.25,0],[0.5,0],[0.75,0],[1,0],[1,0.25],[1,0.5],[1,0.75],[1,1],[0.75,1],[0.5,1],[0.25,1],[0,1],[0,0.75],[0,0.5],[0,0.25]];outlineConnect=0;gradientColor=none;html=1;whiteSpace=wrap;fontSize=12;fontStyle=0;container=1;pointerEvents=0;collapsible=0;recursiveResize=0;shape=mxgraph.aws4.group;grIcon=mxgraph.aws4.group_security_group;grStroke=0;strokeColor=#248814;fillColor=#E9F3E6;verticalAlign=top;align=left;spacingLeft=30;fontColor=#248814;dashed=0;" parent="2" vertex="1">
                    <mxGeometry x="462" y="580" width="170" height="140" as="geometry"/>
                </mxCell>
                <mxCell id="92" value="Backend API" style="rounded=1;whiteSpace=wrap;html=1;fontSize=14;fontColor=#000000;" parent="91" vertex="1">
                    <mxGeometry x="15" y="100" width="140" height="30" as="geometry"/>
                </mxCell>
                <mxCell id="93" value="Grafana" style="rounded=1;whiteSpace=wrap;html=1;fontSize=14;fontColor=#000000;" parent="2" vertex="1">
                    <mxGeometry x="477" y="630" width="140" height="30" as="geometry"/>
                </mxCell>
                <mxCell id="94" value="Simulation Worker" style="rounded=1;whiteSpace=wrap;html=1;fontSize=14;fontColor=#000000;" parent="2" vertex="1">
                    <mxGeometry x="482" y="330" width="140" height="30" as="geometry"/>
                </mxCell>
                <mxCell id="95" value="Forecast Worker" style="rounded=1;whiteSpace=wrap;html=1;fontSize=14;fontColor=#000000;" parent="2" vertex="1">
                    <mxGeometry x="482" y="290" width="140" height="30" as="geometry"/>
                </mxCell>
                <mxCell id="96" value="PostgreSQL" style="rounded=1;whiteSpace=wrap;html=1;fontSize=14;fontColor=#000000;" parent="2" vertex="1">
                    <mxGeometry x="482" y="210" width="140" height="30" as="geometry"/>
                </mxCell>
                <mxCell id="98" value="Optimization Worker" style="rounded=1;whiteSpace=wrap;html=1;fontSize=14;fontColor=#000000;" parent="2" vertex="1">
                    <mxGeometry x="482" y="370" width="140" height="30" as="geometry"/>
                </mxCell>
            </root>
        </mxGraphModel>
    </diagram>
</mxfile>